<svg width="460" height="460" viewBox="0 0 460 460" version="1.1" xmlns="http://www.w3.org/2000/svg" xmlns:xlink="http://www.w3.org/1999/xlink">
<title>Group</title>
<desc>Created using Figma</desc>
<g id="Canvas" transform="matrix(4 0 0 4 628 556)">
<g id="Group">
<g id="Rectangle">
<use xlink:href="#path0_fill" transform="translate(-157 -139)" fill="#006400"/>
</g>
<g id="Group">
<g id="Vector">
<use xlink:href="#path1_fill" transform="matrix(-1 0 0 1 -57.3334 -111)" fill="#FFFFFF"/>
<mask id="mask0_outline_ins">
<use xlink:href="#path1_fill" fill="white" transform="matrix(-1 0 0 1 -57.3334 -111)"/>
</mask>
<g mask="url(#mask0_outline_ins)">
<use xlink:href="#path2_stroke_2x" transform="matrix(-1 0 0 1 -57.3334 -111)" fill="#FFFFFF"/>
</g>
</g>
</g>
<g id="Group">
<g id="Vector">
<use xlink:href="#path3_fill" transform="translate(-120.175 -93.3119)" fill="#FFFFFF"/>
<mask id="mask1_outline_ins">
<use xlink:href="#path3_fill" fill="white" transform="translate(-120.175 -93.3119)"/>
</mask>
<g mask="url(#mask1_outline_ins)">
<use xlink:href="#path4_stroke_2x" transform="translate(-120.175 -93.3119)" fill="#FFFFFF"/>
</g>
</g>
<g id="Group">
<g id="Vector">
<use xlink:href="#path5_fill" transform="translate(-113.022 -100.877)" fill="#FFFFFF"/>
<mask id="mask2_outline_ins">
<use xlink:href="#path5_fill" fill="white" transform="translate(-113.022 -100.877)"/>
</mask>
<g mask="url(#mask2_outline_ins)">
<use xlink:href="#path6_stroke_2x" transform="translate(-113.022 -100.877)" fill="#FFFFFF"/>
</g>
</g>
<g id="Vector">
<use xlink:href="#path7_fill" transform="translate(-112.515 -108.07)" fill="#FFFFFF"/>
<mask id="mask3_outline_ins">
<use xlink:href="#path7_fill" fill="white" transform="translate(-112.515 -108.07)"/>
</mask>
<g mask="url(#mask3_outline_ins)">
<use xlink:href="#path8_stroke_2x" transform="translate(-112.515 -108.07)" fill="#FFFFFF"/>
</g>
</g>
</g>
</g>
<g id="Group">
<g id="Vector">
<use xlink:href="#path1_fill" transform="translate(-142 -111)" fill="#FFFFFF"/>
<mask id="mask4_outline_ins">
<use xlink:href="#path1_fill" fill="white" transform="translate(-142 -111)"/>
</mask>
<g mask="url(#mask4_outline_ins)">
<use xlink:href="#path2_stroke_2x" transform="translate(-142 -111)" fill="#FFFFFF"/>
</g>
</g>
</g>
</g>
</g>
<defs>
<path id="path0_fill" d="M 0 0L 115 0L 115 115L 0 115L 0 0Z"/>
<path id="path1_fill" d="M 1.17842e-05 27.7023C 1.17842e-05 18.7943 3.24867 10.8385 9.74387 3.85087C 12.1237 1.28029 13.9725 1.0302e-07 15.2779 1.0302e-07C 15.7564 1.0302e-07 16.2034 0.166038 16.6063 0.502114C 16.9987 0.83619 17.1981 1.23028 17.1981 1.67038C 17.1981 2.32453 16.367 3.40677 14.7112 4.92712C 7.92851 11.1325 4.54352 18.8083 4.54352 27.9543C 4.54352 38.1046 8.04819 46.3685 15.0806 52.75C 16.4888 54.0303 17.1981 55.0545 17.1981 55.8127C 17.1981 56.2928 17.003 56.7209 16.6189 57.0909C 16.2349 57.461 15.7795 57.6431 15.2779 57.6431C 13.6452 57.6431 11.3283 55.8327 8.34616 52.2078C 2.78275 45.4703 1.17842e-05 37.3005 1.17842e-05 27.7023Z"/>
<path id="path2_stroke_2x" d="M 9.74387 3.85087L 10.4763 4.5317L 10.4777 4.53023L 9.74387 3.85087ZM 16.6063 0.502114L 17.2545 -0.259383L 17.2468 -0.265827L 16.6063 0.502114ZM 14.7112 4.92712L 15.3862 5.66493L 15.3876 5.66371L 14.7112 4.92712ZM 15.0806 52.75L 15.7533 52.0101L 15.7526 52.0094L 15.0806 52.75ZM 8.34616 52.2078L 9.11841 51.5725L 9.11725 51.5711L 8.34616 52.2078ZM 1.00001 27.7023C 1.00001 19.0656 4.13985 11.3485 10.4763 4.5317L 9.01142 3.17004C 2.35749 10.3284 -0.999988 18.5229 -0.999988 27.7023L 1.00001 27.7023ZM 10.4777 4.53023C 11.6421 3.27248 12.644 2.36681 13.4845 1.78262C 14.3467 1.18338 14.9291 1 15.2779 1L 15.2779 -1C 14.3213 -1 13.3266 -0.543239 12.3431 0.140315C 11.3379 0.838913 10.2255 1.85869 9.01006 3.17152L 10.4777 4.53023ZM 15.2779 1C 15.5051 1 15.7289 1.0725 15.9658 1.27006L 17.2468 -0.265827C 16.6778 -0.740427 16.0077 -1 15.2779 -1L 15.2779 1ZM 15.9581 1.26357C 16.1692 1.44325 16.1981 1.57419 16.1981 1.67038L 18.1981 1.67038C 18.1981 0.886364 17.8283 0.229125 17.2545 -0.259345L 15.9581 1.26357ZM 16.1981 1.67038C 16.1981 1.63987 16.1824 1.8419 15.7812 2.36648C 15.4175 2.8421 14.844 3.44764 14.0349 4.19052L 15.3876 5.66371C 16.2343 4.88625 16.9042 4.19049 17.37 3.58137C 17.7983 3.0212 18.1981 2.35503 18.1981 1.67038L 16.1981 1.67038ZM 14.0362 4.18931C 7.04728 10.5834 3.54352 18.5265 3.54352 27.9543L 5.54352 27.9543C 5.54352 19.09 8.80974 11.6817 15.3862 5.66493L 14.0362 4.18931ZM 3.54352 27.9543C 3.54352 38.364 7.15108 46.9048 14.4086 53.4905L 15.7526 52.0094C 8.9453 45.8322 5.54352 37.8453 5.54352 27.9543L 3.54352 27.9543ZM 14.4079 53.4899C 15.0822 54.1029 15.5513 54.6214 15.845 55.046C 16.1502 55.4872 16.1981 55.7298 16.1981 55.8127L 18.1981 55.8127C 18.1981 55.1374 17.8914 54.4887 17.4899 53.9082C 17.0768 53.3111 16.4873 52.6773 15.7533 52.0101L 14.4079 53.4899ZM 16.1981 55.8127C 16.1981 55.9872 16.1393 56.1644 15.925 56.3709L 17.3128 57.811C 17.8666 57.2773 18.1981 56.5983 18.1981 55.8127L 16.1981 55.8127ZM 15.925 56.3709C 15.7226 56.5659 15.5142 56.6431 15.2779 56.6431L 15.2779 58.6431C 16.0447 58.6431 16.7471 58.3562 17.3128 57.811L 15.925 56.3709ZM 15.2779 56.6431C 14.8034 56.6431 14.0387 56.3624 12.9348 55.4976C 11.8592 54.6549 10.5869 53.3575 9.11841 51.5725L 7.57391 52.8432C 9.08752 54.683 10.4648 56.1032 11.7013 57.072C 12.9095 58.0185 14.1197 58.6431 15.2779 58.6431L 15.2779 56.6431ZM 9.11725 51.5711C 3.71666 45.0308 1.00001 37.0925 1.00001 27.7023L -0.999988 27.7023C -0.999988 37.5084 1.84884 45.9099 7.57506 52.8446L 9.11725 51.5711Z"/>
<path id="path3_fill" d="M 40.2827 5.95229e-07L 31.4287 5.95229e-07L 31.4287 3.67884L 10.3314 3.67884L 10.3314 5.95229e-07L 1.35992 5.95229e-07L -1.02471e-06 30.571L 16.2936 30.571C 16.2936 21.4629 18.3103 14.0832 20.8077 14.0832C 23.2987 14.0832 25.3134 21.4629 25.3134 30.571L 41.6048 30.571L 40.2827 5.95229e-07Z"/>
<path id="path4_stroke_2x" d="M 40.2827 5.95229e-07L 41.2818 -0.0432069L 41.2404 -0.999999L 40.2827 -0.999999L 40.2827 5.95229e-07ZM 31.4287 5.95229e-07L 31.4287 -0.999999L 30.4287 -0.999999L 30.4287 5.95229e-07L 31.4287 5.95229e-07ZM 31.4287 3.67884L 31.4287 4.67884L 32.4287 4.67884L 32.4287 3.67884L 31.4287 3.67884ZM 10.3314 3.67884L 9.33143 3.67884L 9.33143 4.67884L 10.3314 4.67884L 10.3314 3.67884ZM 10.3314 5.95229e-07L 11.3314 5.95229e-07L 11.3314 -0.999999L 10.3314 -0.999999L 10.3314 5.95229e-07ZM 1.35992 5.95229e-07L 1.35992 -0.999999L 0.40341 -0.999999L 0.360903 -0.0444393L 1.35992 5.95229e-07ZM -1.02471e-06 30.571L -0.999013 30.5265L -1.04547 31.571L -1.02471e-06 31.571L -1.02471e-06 30.571ZM 16.2936 30.571L 16.2936 31.571L 17.2936 31.571L 17.2936 30.571L 16.2936 30.571ZM 25.3134 30.571L 24.3134 30.571L 24.3134 31.571L 25.3134 31.571L 25.3134 30.571ZM 41.6048 30.571L 41.6048 31.571L 42.649 31.571L 42.6039 30.5278L 41.6048 30.571ZM 40.2827 -0.999999L 31.4287 -0.999999L 31.4287 1L 40.2827 1L 40.2827 -0.999999ZM 30.4287 5.95229e-07L 30.4287 3.67884L 32.4287 3.67884L 32.4287 5.95229e-07L 30.4287 5.95229e-07ZM 31.4287 2.67884L 10.3314 2.67884L 10.3314 4.67884L 31.4287 4.67884L 31.4287 2.67884ZM 11.3314 3.67884L 11.3314 5.95229e-07L 9.33143 5.95229e-07L 9.33143 3.67884L 11.3314 3.67884ZM 10.3314 -0.999999L 1.35992 -0.999999L 1.35992 1L 10.3314 1L 10.3314 -0.999999ZM 0.360903 -0.0444393L -0.999013 30.5265L 0.999011 30.6154L 2.35893 0.0444405L 0.360903 -0.0444393ZM -1.02471e-06 31.571L 16.2936 31.571L 16.2936 29.571L -1.02471e-06 29.571L -1.02471e-06 31.571ZM 17.2936 30.571C 17.2936 26.0796 17.7919 22.0507 18.5787 19.1755C 18.974 17.7308 19.427 16.6342 19.8881 15.9222C 20.3773 15.1668 20.7104 15.0832 20.8077 15.0832L 20.8077 13.0832C 19.6562 13.0832 18.8007 13.9221 18.2094 14.835C 17.59 15.7913 17.0706 17.1089 16.6496 18.6476C 15.8036 21.7393 15.2936 25.9543 15.2936 30.571L 17.2936 30.571ZM 20.8077 15.0832C 20.9022 15.0832 21.2341 15.1654 21.7228 15.9215C 22.183 16.6335 22.6353 17.7303 23.03 19.1751C 23.8155 22.0504 24.3134 26.0796 24.3134 30.571L 26.3134 30.571C 26.3134 25.9543 25.8039 21.7396 24.9593 18.648C 24.539 17.1094 24.0205 15.792 23.4024 14.8358C 22.8128 13.9235 21.9586 13.0832 20.8077 13.0832L 20.8077 15.0832ZM 25.3134 31.571L 41.6048 31.571L 41.6048 29.571L 25.3134 29.571L 25.3134 31.571ZM 42.6039 30.5278L 41.2818 -0.0432069L 39.2836 0.0432081L 40.6058 30.6142L 42.6039 30.5278Z"/>
<path id="path5_fill" d="M 0.0166867 7.12891L 3.59478 7.12891L 3.59478 10.8818L 9.14768 10.8818L 9.14768 7.61102C 9.14768 7.61102 10.3082 5.44852 11.6639 7.56501L 11.6639 10.8818L 12.3208 10.8818L 12.3208 7.61102C 12.3208 7.61102 13.5799 5.44852 14.8433 7.46698L 14.8433 10.8818L 15.5946 10.8818L 15.5946 7.61102C 15.5946 7.61102 16.7614 5.40251 18.1696 7.56501L 18.1696 10.8818L 23.6637 10.8818L 23.6637 7.17692L 27.1474 7.22893C 27.1474 7.22893 27.5986 5.40451 26.9418 3.08999C 26.9418 3.08999 20.69 -0.268777 13.624 0.0172882C 13.624 0.0172882 7.52964 -0.32279 0.316734 2.99797C 0.320932 2.99797 -0.0861449 3.5781 0.0166867 7.12891Z"/>
<path id="path6_stroke_2x" d="M 0.0166867 7.12891L -0.982894 7.15785L -0.954772 8.12891L 0.0166867 8.12891L 0.0166867 7.12891ZM 3.59478 7.12891L 4.59478 7.12891L 4.59478 6.12891L 3.59478 6.12891L 3.59478 7.12891ZM 3.59478 10.8818L 2.59478 10.8818L 2.59478 11.8818L 3.59478 11.8818L 3.59478 10.8818ZM 9.14768 10.8818L 9.14768 11.8818L 10.1477 11.8818L 10.1477 10.8818L 9.14768 10.8818ZM 9.14768 7.61102L 8.26655 7.13814L 8.14768 7.35964L 8.14768 7.61102L 9.14768 7.61102ZM 11.6639 7.56501L 12.6639 7.56501L 12.6639 7.27219L 12.506 7.02563L 11.6639 7.56501ZM 11.6639 10.8818L 10.6639 10.8818L 10.6639 11.8818L 11.6639 11.8818L 11.6639 10.8818ZM 12.3208 10.8818L 12.3208 11.8818L 13.3208 11.8818L 13.3208 10.8818L 12.3208 10.8818ZM 12.3208 7.61102L 11.4566 7.10783L 11.3208 7.34109L 11.3208 7.61102L 12.3208 7.61102ZM 14.8433 7.46698L 15.8433 7.46698L 15.8433 7.17983L 15.6909 6.93643L 14.8433 7.46698ZM 14.8433 10.8818L 13.8433 10.8818L 13.8433 11.8818L 14.8433 11.8818L 14.8433 10.8818ZM 15.5946 10.8818L 15.5946 11.8818L 16.5946 11.8818L 16.5946 10.8818L 15.5946 10.8818ZM 15.5946 7.61102L 14.7104 7.14386L 14.5946 7.36308L 14.5946 7.61102L 15.5946 7.61102ZM 18.1696 7.56501L 19.1696 7.56501L 19.1696 7.26812L 19.0076 7.01932L 18.1696 7.56501ZM 18.1696 10.8818L 17.1696 10.8818L 17.1696 11.8818L 18.1696 11.8818L 18.1696 10.8818ZM 23.6637 10.8818L 23.6637 11.8818L 24.6637 11.8818L 24.6637 10.8818L 23.6637 10.8818ZM 23.6637 7.17692L 23.6786 6.17703L 22.6637 6.16188L 22.6637 7.17692L 23.6637 7.17692ZM 27.1474 7.22893L 27.1325 8.22882L 27.9273 8.24068L 28.1182 7.46902L 27.1474 7.22893ZM 26.9418 3.08999L 27.9038 2.81697L 27.7881 2.40952L 27.415 2.20907L 26.9418 3.08999ZM 13.624 0.0172882L 13.5683 1.01573L 13.6163 1.01842L 13.6644 1.01647L 13.624 0.0172882ZM 0.316734 2.99797L -0.101464 2.08961L 0.316734 3.99797L 0.316734 2.99797ZM 0.0166867 8.12891L 3.59478 8.12891L 3.59478 6.12891L 0.0166867 6.12891L 0.0166867 8.12891ZM 2.59478 7.12891L 2.59478 10.8818L 4.59478 10.8818L 4.59478 7.12891L 2.59478 7.12891ZM 3.59478 11.8818L 9.14768 11.8818L 9.14768 9.88176L 3.59478 9.88176L 3.59478 11.8818ZM 10.1477 10.8818L 10.1477 7.61102L 8.14768 7.61102L 8.14768 10.8818L 10.1477 10.8818ZM 9.14768 7.61102C 10.0288 8.08389 10.0286 8.08427 10.0284 8.08464C 10.0283 8.08475 10.0282 8.08511 10.028 8.08534C 10.0278 8.08579 10.0276 8.08621 10.0273 8.0866C 10.0269 8.08739 10.0266 8.08805 10.0263 8.0886C 10.0257 8.08969 10.0253 8.09032 10.0252 8.09052C 10.025 8.09089 10.0258 8.08953 10.0274 8.08661C 10.0308 8.08072 10.0378 8.06883 10.0481 8.05232C 10.0691 8.01874 10.1018 7.96941 10.144 7.91436C 10.2376 7.79219 10.3352 7.69789 10.4123 7.65157C 10.4698 7.61703 10.4432 7.64732 10.3967 7.63258C 10.3855 7.62903 10.5483 7.67729 10.8219 8.10438L 12.506 7.02563C 12.1017 6.39448 11.611 5.91937 11.0009 5.72603C 10.3555 5.5215 9.78459 5.69557 9.3825 5.93709C 9.00001 6.16684 8.72276 6.48087 8.55638 6.69804C 8.46857 6.81265 8.40002 6.91573 8.35225 6.99214C 8.32819 7.03063 8.30892 7.06313 8.29465 7.08788C 8.2875 7.10028 8.28158 7.11081 8.27689 7.11924C 8.27455 7.12346 8.27251 7.12716 8.27079 7.13031C 8.26993 7.13189 8.26914 7.13334 8.26844 7.13464C 8.26808 7.13529 8.26775 7.13591 8.26743 7.1365C 8.26728 7.13679 8.26706 7.1372 8.26698 7.13735C 8.26676 7.13775 8.26655 7.13814 9.14768 7.61102ZM 10.6639 7.56501L 10.6639 10.8818L 12.6639 10.8818L 12.6639 7.56501L 10.6639 7.56501ZM 11.6639 11.8818L 12.3208 11.8818L 12.3208 9.88176L 11.6639 9.88176L 11.6639 11.8818ZM 13.3208 10.8818L 13.3208 7.61102L 11.3208 7.61102L 11.3208 10.8818L 13.3208 10.8818ZM 12.3208 7.61102C 13.1849 8.1142 13.1847 8.11455 13.1845 8.11489C 13.1845 8.11499 13.1843 8.11532 13.1842 8.11553C 13.1839 8.11594 13.1837 8.11632 13.1835 8.11668C 13.1831 8.11738 13.1827 8.11796 13.1825 8.11843C 13.1819 8.11936 13.1816 8.11982 13.1816 8.11983C 13.1816 8.11986 13.1826 8.11813 13.1847 8.11482C 13.1888 8.10815 13.1969 8.09536 13.2086 8.07784C 13.2324 8.04229 13.2692 7.99017 13.3163 7.93166C 13.4191 7.80391 13.5317 7.69513 13.629 7.63581C 13.7165 7.58243 13.7057 7.61717 13.6516 7.60233C 13.615 7.59227 13.7529 7.60977 13.9956 7.99753L 15.6909 6.93643C 15.3019 6.31496 14.8088 5.84585 14.1807 5.67357C 13.5351 5.4965 12.9727 5.6934 12.5875 5.92834C 12.2121 6.15734 11.931 6.46302 11.7582 6.67767C 11.6675 6.79035 11.596 6.89141 11.546 6.96624C 11.5208 7.0039 11.5006 7.0356 11.4857 7.05963C 11.4782 7.07166 11.4721 7.08182 11.4672 7.08991C 11.4648 7.09396 11.4627 7.09749 11.4609 7.10049C 11.46 7.10198 11.4592 7.10334 11.4585 7.10457C 11.4581 7.10518 11.4578 7.10576 11.4575 7.1063C 11.4573 7.10658 11.4571 7.10696 11.457 7.10709C 11.4568 7.10747 11.4566 7.10783 12.3208 7.61102ZM 13.8433 7.46698L 13.8433 10.8818L 15.8433 10.8818L 15.8433 7.46698L 13.8433 7.46698ZM 14.8433 11.8818L 15.5946 11.8818L 15.5946 9.88176L 14.8433 9.88176L 14.8433 11.8818ZM 16.5946 10.8818L 16.5946 7.61102L 14.5946 7.61102L 14.5946 10.8818L 16.5946 10.8818ZM 15.5946 7.61102C 16.4788 8.07817 16.4785 8.07855 16.4784 8.07893C 16.4783 8.07904 16.4781 8.07941 16.478 8.07964C 16.4777 8.08009 16.4775 8.08052 16.4773 8.08092C 16.4769 8.08171 16.4765 8.08238 16.4762 8.08293C 16.4756 8.08403 16.4753 8.08466 16.4752 8.08483C 16.475 8.08518 16.4758 8.08375 16.4775 8.08073C 16.481 8.07464 16.488 8.06241 16.4985 8.04547C 16.5198 8.01101 16.5529 7.96043 16.5957 7.90399C 16.6905 7.77897 16.7902 7.68177 16.8701 7.63362C 16.9042 7.61306 16.9161 7.61295 16.9071 7.6145C 16.9022 7.61535 16.8946 7.61604 16.8858 7.61548C 16.8769 7.61492 16.8718 7.6134 16.8721 7.6135C 16.8727 7.61369 16.8829 7.6169 16.9027 7.62855C 16.9228 7.64038 16.9537 7.66133 16.9943 7.69705C 17.0771 7.76991 17.1924 7.89697 17.3316 8.11069L 19.0076 7.01932C 18.59 6.37807 18.0894 5.90051 17.4742 5.70629C 16.8227 5.50059 16.2464 5.67446 15.838 5.92053C 15.4501 6.15419 15.1701 6.47396 15.0021 6.69546C 14.9135 6.81228 14.8445 6.91735 14.7964 6.99522C 14.7722 7.03444 14.7529 7.06755 14.7386 7.09275C 14.7314 7.10538 14.7254 7.11609 14.7207 7.12466C 14.7184 7.12895 14.7164 7.13271 14.7146 7.13592C 14.7138 7.13752 14.713 7.13899 14.7123 7.14031C 14.7119 7.14097 14.7116 7.1416 14.7113 7.14219C 14.7111 7.14249 14.7109 7.14291 14.7108 7.14305C 14.7106 7.14346 14.7104 7.14386 15.5946 7.61102ZM 17.1696 7.56501L 17.1696 10.8818L 19.1696 10.8818L 19.1696 7.56501L 17.1696 7.56501ZM 18.1696 11.8818L 23.6637 11.8818L 23.6637 9.88176L 18.1696 9.88176L 18.1696 11.8818ZM 24.6637 10.8818L 24.6637 7.17692L 22.6637 7.17692L 22.6637 10.8818L 24.6637 10.8818ZM 23.6488 8.17681L 27.1325 8.22882L 27.1623 6.22904L 23.6786 6.17703L 23.6488 8.17681ZM 27.1474 7.22893C 28.1182 7.46902 28.1182 7.46871 28.1183 7.46839C 28.1183 7.46828 28.1184 7.46796 28.1185 7.46773C 28.1186 7.46727 28.1187 7.46678 28.1188 7.46627C 28.1191 7.46523 28.1194 7.46409 28.1197 7.46283C 28.1203 7.46032 28.121 7.45735 28.1218 7.45393C 28.1234 7.4471 28.1254 7.43848 28.1278 7.4281C 28.1324 7.40736 28.1385 7.37959 28.1455 7.34514C 28.1595 7.27626 28.1774 7.18049 28.1959 7.0605C 28.233 6.82077 28.273 6.48291 28.2901 6.06855C 28.3241 5.24153 28.2672 4.09744 27.9038 2.81697L 25.9798 3.363C 26.2732 4.39706 26.3191 5.32244 26.2918 5.98626C 26.2781 6.31732 26.2464 6.58022 26.2194 6.75489C 26.2059 6.84211 26.1937 6.90696 26.1855 6.94689C 26.1815 6.96685 26.1785 6.98054 26.1769 6.98764C 26.1761 6.9912 26.1756 6.9931 26.1756 6.99332C 26.1755 6.99342 26.1756 6.99311 26.1758 6.99236C 26.1759 6.99199 26.176 6.99151 26.1761 6.99092C 26.1762 6.99063 26.1763 6.99031 26.1764 6.98996C 26.1764 6.98979 26.1765 6.98951 26.1765 6.98942C 26.1766 6.98914 26.1767 6.98884 27.1474 7.22893ZM 26.9418 3.08999C 27.415 2.20907 27.4148 2.20894 27.4145 2.2088C 27.4144 2.20873 27.4141 2.20858 27.4139 2.20845C 27.4134 2.20819 27.4128 2.20788 27.4121 2.20752C 27.4108 2.2068 27.4091 2.20588 27.407 2.20475C 27.4027 2.20251 27.397 2.19947 27.3898 2.19566C 27.3753 2.18804 27.3548 2.17733 27.3286 2.16377C 27.276 2.13664 27.2002 2.09803 27.1023 2.04969C 26.9066 1.95301 26.6228 1.81725 26.2616 1.65625C 25.5396 1.33447 24.5054 0.910625 23.2448 0.496352C 20.7323 -0.329402 17.2774 -1.13144 13.5835 -0.981893L 13.6644 1.01647C 17.0366 0.879948 20.2406 1.61426 22.6204 2.39637C 23.8061 2.78603 24.7764 3.184 25.4474 3.48304C 25.7827 3.63246 26.0425 3.75687 26.2164 3.84276C 26.3033 3.88569 26.3686 3.91897 26.4111 3.9409C 26.4323 3.95187 26.4478 3.95999 26.4575 3.96506C 26.4623 3.9676 26.4656 3.96937 26.4675 3.97035C 26.4684 3.97084 26.4689 3.97114 26.4691 3.97123C 26.4692 3.97128 26.4692 3.97127 26.4691 3.97122C 26.469 3.97119 26.4689 3.97111 26.4689 3.9711C 26.4687 3.97101 26.4685 3.9709 26.9418 3.08999ZM 13.624 0.0172882C 13.6797 -0.981159 13.6794 -0.981176 13.679 -0.981195C 13.6789 -0.981203 13.6785 -0.981224 13.6782 -0.98124C 13.6777 -0.981271 13.677 -0.981308 13.6762 -0.981349C 13.6747 -0.981431 13.6728 -0.981531 13.6705 -0.981648C 13.6659 -0.98188 13.6599 -0.982177 13.6524 -0.982524C 13.6374 -0.983216 13.6165 -0.984104 13.59 -0.985065C 13.5369 -0.986988 13.461 -0.989201 13.3636 -0.990718C 13.1688 -0.99375 12.8876 -0.993997 12.5298 -0.983535C 11.8145 -0.962616 10.7918 -0.898845 9.54035 -0.728521C 7.03901 -0.388084 3.6129 0.379553 -0.101464 2.08961L 0.734933 3.90632C 4.23348 2.29562 7.461 1.57292 9.81006 1.25321C 10.9838 1.09346 11.9355 1.0347 12.5883 1.01561C 12.9146 1.00607 13.1658 1.00645 13.3325 1.00904C 13.4158 1.01034 13.4779 1.01219 13.5176 1.01362C 13.5375 1.01434 13.5517 1.01496 13.5602 1.01535C 13.5645 1.01555 13.5673 1.01569 13.5686 1.01576C 13.5693 1.01579 13.5696 1.01581 13.5695 1.0158C 13.5695 1.0158 13.5694 1.0158 13.5692 1.01579C 13.5691 1.01578 13.5689 1.01577 13.5688 1.01576C 13.5686 1.01575 13.5683 1.01573 13.624 0.0172882ZM 0.316734 3.99797C 0.15633 3.98502 -0.181091 3.86524 -0.342628 3.74978C -0.468826 3.61673 -0.622848 3.34023 -0.66019 3.21144C -0.71082 2.9797 -0.662455 2.7936 -0.656528 2.76848C -0.632649 2.66725 -0.596895 2.5916 -0.595116 2.58765C -0.585334 2.56594 -0.576925 2.54942 -0.574007 2.54372C -0.570266 2.5364 -0.567284 2.5308 -0.566164 2.52871C -0.564503 2.52559 -0.562315 2.52157 -0.564394 2.5254C -0.565399 2.52726 -0.567293 2.53076 -0.569615 2.53511C -0.579894 2.5544 -0.592681 2.57948 -0.607036 2.61057C -0.635227 2.67161 -0.664259 2.74454 -0.693211 2.83298C -0.750424 3.00775 -0.808801 3.24768 -0.859199 3.58345C -0.959513 4.25176 -1.03529 5.3486 -0.982894 7.15785L 1.01627 7.09996C 0.965832 5.3584 1.04218 4.38977 1.11864 3.88032C 1.15664 3.62721 1.19282 3.50017 1.20754 3.45521C 1.21455 3.43378 1.21583 3.43364 1.20869 3.44909C 1.20487 3.45738 1.2003 3.46652 1.19547 3.47558C 1.19451 3.47738 1.19381 3.47868 1.19381 3.47867C 1.19384 3.47861 1.19387 3.47857 1.19402 3.47828C 1.19413 3.47807 1.19439 3.4776 1.19467 3.47708C 1.19513 3.47624 1.19646 3.47378 1.19807 3.47077C 1.19951 3.46807 1.20277 3.46195 1.20673 3.45419C 1.20988 3.44804 1.21847 3.43115 1.22838 3.40915C 1.23029 3.4049 1.26613 3.32904 1.29004 3.22767C 1.29599 3.20247 1.34436 3.01632 1.29372 2.78455C 1.25637 2.65574 1.10235 2.37922 0.976136 2.24616C 0.814589 2.1307 0.477155 2.01092 0.316734 1.99797L 0.316734 3.99797Z"/>
<path id="path7_fill" d="M -1.38336e-05 9.64436C -1.38336e-05 9.64436 5.37244 6.6937 13.1478 6.6937C 13.1478 6.6937 20.3502 6.6937 26.2913 9.64436C 26.2913 9.64436 23.9178 0.52831 13.1226 0.000190654C 13.1205 0.000190654 2.91075 -0.169848 -1.38336e-05 9.64436Z"/>
<path id="path8_stroke_2x" d="M -1.38336e-05 9.64436L -0.958736 9.36002L -1.65025 11.6916L 0.48138 10.5209L -1.38336e-05 9.64436ZM 13.1478 6.6937L 13.1478 7.6937L 13.1478 7.6937L 13.1478 6.6937ZM 26.2913 9.64436L 25.8465 10.54L 27.812 11.5162L 27.2591 9.3924L 26.2913 9.64436ZM 13.1226 0.000190654L 13.1715 -0.998615L 13.147 -0.999809L 13.1226 -0.999809L 13.1226 0.000190654ZM -1.38336e-05 9.64436C 0.48138 10.5209 0.481139 10.521 0.480919 10.5211C 0.480872 10.5211 0.480671 10.5213 0.480579 10.5213C 0.480392 10.5214 0.480287 10.5215 0.480263 10.5215C 0.480215 10.5215 0.48049 10.5214 0.481088 10.521C 0.482282 10.5204 0.484766 10.519 0.488526 10.517C 0.496047 10.513 0.508676 10.5063 0.52632 10.497C 0.561612 10.4785 0.616957 10.45 0.691632 10.4128C 0.841003 10.3385 1.06757 10.2297 1.36557 10.0978C 1.96177 9.83398 2.84251 9.47846 3.96173 9.12183C 6.20203 8.40798 9.38514 7.6937 13.1478 7.6937L 13.1478 5.6937C 9.13507 5.6937 5.74429 6.45475 3.35453 7.21623C 2.15872 7.59727 1.21039 7.97941 0.556278 8.26885C 0.229115 8.41361 -0.0247841 8.53534 -0.199591 8.62235C -0.287006 8.66586 -0.354679 8.70071 -0.401881 8.72544C -0.425484 8.73781 -0.443972 8.74765 -0.457256 8.75478C -0.463898 8.75834 -0.469239 8.76123 -0.473268 8.76342C -0.475283 8.76451 -0.476969 8.76543 -0.478326 8.76617C -0.479005 8.76654 -0.479601 8.76687 -0.480115 8.76715C -0.480371 8.76729 -0.480695 8.76747 -0.480823 8.76754C -0.481126 8.7677 -0.481408 8.76786 -1.38336e-05 9.64436ZM 13.1478 6.6937C 13.1478 7.6937 13.1476 7.6937 13.1475 7.6937C 13.1474 7.6937 13.1473 7.6937 13.1473 7.6937C 13.1473 7.6937 13.1473 7.6937 13.1475 7.6937C 13.1478 7.6937 13.1486 7.6937 13.1498 7.6937C 13.1522 7.69371 13.1563 7.69373 13.1621 7.69377C 13.1737 7.69384 13.192 7.694 13.2168 7.69433C 13.2664 7.69499 13.3419 7.69634 13.4412 7.69908C 13.6399 7.70457 13.9336 7.71565 14.3061 7.73801C 15.0514 7.78275 16.109 7.87248 17.3481 8.05218C 19.8375 8.41321 23.0079 9.1302 25.8465 10.54L 26.7361 8.74874C 23.6336 7.20786 20.2322 6.44952 17.6351 6.07288C 16.331 5.88375 15.2167 5.78907 14.4259 5.7416C 14.0303 5.71785 13.7149 5.70588 13.4965 5.69984C 13.3872 5.69682 13.3022 5.69529 13.2434 5.69451C 13.214 5.69412 13.1912 5.69391 13.1751 5.69381C 13.1671 5.69376 13.1608 5.69373 13.1562 5.69371C 13.154 5.69371 13.1521 5.6937 13.1507 5.6937C 13.15 5.6937 13.1494 5.6937 13.1489 5.6937C 13.1487 5.6937 13.1484 5.6937 13.1483 5.6937C 13.148 5.6937 13.1478 5.6937 13.1478 6.6937ZM 26.2913 9.64436C 27.2591 9.3924 27.2589 9.39184 27.2588 9.39126C 27.2587 9.39101 27.2585 9.39039 27.2584 9.38991C 27.2582 9.38893 27.2579 9.38782 27.2575 9.38657C 27.2569 9.38407 27.2561 9.38102 27.2551 9.37741C 27.2531 9.3702 27.2506 9.3608 27.2474 9.34928C 27.2409 9.32623 27.2319 9.29467 27.2201 9.25516C 27.1964 9.17615 27.1616 9.0652 27.114 8.92673C 27.0189 8.64997 26.8726 8.26214 26.6626 7.79882C 26.2432 6.87384 25.5652 5.63758 24.5252 4.38235C 22.4285 1.85154 18.8866 -0.719021 13.1715 -0.998615L 13.0737 0.998996C 18.1538 1.24752 21.1962 3.49905 22.9851 5.65829C 23.888 6.74809 24.478 7.82385 24.841 8.62463C 25.0222 9.0242 25.1456 9.35268 25.2225 9.57652C 25.2609 9.68835 25.2876 9.77377 25.304 9.82855C 25.3122 9.85594 25.3178 9.87563 25.321 9.88712C 25.3226 9.89285 25.3236 9.89654 25.3241 9.8981C 25.3243 9.89887 25.3243 9.89912 25.3243 9.89883C 25.3242 9.89868 25.3241 9.8984 25.324 9.89799C 25.324 9.89778 25.3239 9.89736 25.3238 9.89726C 25.3237 9.89681 25.3236 9.89633 26.2913 9.64436ZM 13.1226 -0.999809C 13.1358 -0.999809 13.0773 -1.00051 12.9916 -0.999207C 12.9048 -0.997886 12.7817 -0.994551 12.6267 -0.986653C 12.3167 -0.970867 11.8778 -0.936786 11.3449 -0.863776C 10.2816 -0.718106 8.82959 -0.415492 7.27583 0.215417C 4.14898 1.48507 0.602861 4.09479 -0.958736 9.36002L 0.958708 9.92871C 2.30788 5.37973 5.32201 3.16736 8.02826 2.06848C 9.39104 1.51512 10.6737 1.24686 11.6164 1.11771C 12.0864 1.05332 12.4682 1.02401 12.7284 1.01076C 12.8584 1.00414 12.9577 1.00154 13.0221 1.00056C 13.0877 0.999563 13.1092 1.00019 13.1226 1.00019L 13.1226 -0.999809Z"/>
</defs>
</svg>
